<svg version="1.1" xmlns="http://www.w3.org/2000/svg" viewBox="0 0 128 128" class="skip">
<path d="M0 0 C1.658 1.18 1.658 1.18 3.461 2.82 C4.161 3.457 4.862 4.093 5.583 4.749 C6.381 5.492 7.178 6.235 8 7 C8.463 7.427 8.463 7.427 10.803 9.587 C13.378 11.979 15.911 14.41 18.43 16.86 C19.482 17.876 20.543 18.882 21.613 19.879 C31.667 29.268 31.667 29.268 31.918 34.906 C31.371 38.792 29.985 41.217 27.312 44.125 C26.901 44.587 26.901 44.587 24.82 46.926 C24.367 47.418 23.913 47.91 23.446 48.417 C21.357 50.705 19.346 53.058 17.326 55.408 C15.669 57.334 14.002 59.252 12.332 61.168 C5.321 69.221 -1.609 77.344 -8.5 85.5 C-12.469 90.196 -16.446 94.886 -20.438 99.562 C-20.934 100.146 -21.43 100.73 -21.941 101.332 C-29.18 109.797 -29.18 109.797 -32.035 110.504 C-32.704 110.523 -33.373 110.543 -34.062 110.562 C-38 111 -38 111 -39.426 112.523 C-41 114 -41 114 -43.383 114.223 C-44.288 114.17 -45.193 114.117 -46.125 114.062 C-55.231 113.859 -60.563 115.467 -67.926 120.812 C-70.853 122.488 -72.833 121.829 -76 121 C-76.464 121.492 -76.928 121.985 -77.406 122.492 C-79 124 -79 124 -80.945 123.996 C-86.592 122.549 -91.759 120.552 -97 118 C-96.442 114.349 -95.15 112.98 -92.375 110.625 C-90.434 108.777 -90.434 108.777 -89 107 C-89.312 104.997 -89.648 102.997 -90 101 C-88.673 98.299 -87.119 95.866 -85.445 93.367 C-82.135 87.946 -83.071 82.587 -83.355 76.41 C-82.93 72.332 -81.538 71.107 -79 68 C-78.992 66 -78.992 64 -79 62 C-77.418 59.762 -77.418 59.762 -75.188 57.688 C-74.359 56.913 -73.53 56.138 -72.676 55.34 C-69.21 52.309 -65.67 49.388 -62.078 46.508 C-58.53 43.617 -55.074 40.632 -51.625 37.625 C-46.402 33.076 -41.151 28.565 -35.853 24.103 C-32.404 21.196 -28.98 18.263 -25.566 15.316 C-6.662 -0.987 -6.662 -0.987 0 0 Z M-13.188 9.938 C-14.517 11.141 -15.848 12.342 -17.18 13.543 C-17.829 14.135 -18.478 14.727 -19.147 15.337 C-21.631 17.566 -24.21 19.663 -26.812 21.75 C-30.302 24.575 -33.68 27.477 -37 30.5 C-41.192 34.317 -45.527 37.906 -49.934 41.473 C-55.447 46.017 -60.809 50.737 -66.193 55.431 C-69.116 57.969 -72.057 60.486 -75 63 C-74.625 65.438 -74.625 65.438 -74 68 C-73.34 68.33 -72.68 68.66 -72 69 C-71.34 67.02 -70.68 65.04 -70 63 C-69.646 62.969 -69.646 62.969 -67.852 62.812 C-64.152 61.758 -62.043 59.632 -59.375 57 C-58.308 55.985 -57.239 54.972 -56.168 53.961 C-55.635 53.457 -55.102 52.952 -54.552 52.433 C-52.344 50.395 -50.029 48.508 -47.688 46.625 C-43.249 43.049 -38.922 39.368 -34.625 35.625 C-28.324 30.139 -21.981 24.709 -15.585 19.335 C-13.94 17.95 -12.302 16.557 -10.664 15.164 C-9.589 14.255 -8.513 13.346 -7.438 12.438 C-6.487 11.632 -5.537 10.826 -4.559 9.996 C-2.404 8.315 -0.492 7.085 2 6 C0 4 0 4 -2.676 3.504 C-7.446 4.216 -9.75 6.706 -13.188 9.938 Z M-77 72 C-79 74 -79 74 -79.09 75.961 C-79.04 76.758 -78.989 77.554 -78.938 78.375 C-78.769 87.342 -81.075 95.528 -86 103 C-84.68 103.99 -83.36 104.98 -82 106 C-76.152 97.608 -74.705 90.867 -75.125 80.734 C-74.996 77.918 -74.452 76.382 -73 74 C-74.32 73.34 -75.64 72.68 -77 72 Z M-86 109 C-87.98 111.31 -89.96 113.62 -92 116 C-91.175 116.33 -91.175 116.33 -87 118 C-85.35 116.02 -83.7 114.04 -82 112 C-83.32 111.01 -84.64 110.02 -86 109 Z " fill="#FDC76E" transform="translate(97,2)"/>
<path d="M0 0 C1.658 1.18 1.658 1.18 3.461 2.82 C4.161 3.457 4.862 4.093 5.583 4.749 C6.381 5.492 7.178 6.235 8 7 C8.463 7.427 8.463 7.427 10.803 9.587 C13.378 11.979 15.911 14.41 18.43 16.86 C19.482 17.876 20.543 18.882 21.613 19.879 C31.667 29.268 31.667 29.268 31.918 34.906 C31.371 38.792 29.985 41.217 27.312 44.125 C26.901 44.587 26.901 44.587 24.82 46.926 C24.367 47.418 23.913 47.91 23.446 48.417 C21.357 50.705 19.346 53.058 17.326 55.408 C15.669 57.334 14.002 59.252 12.332 61.168 C5.321 69.221 -1.609 77.344 -8.5 85.5 C-12.469 90.196 -16.446 94.886 -20.438 99.562 C-20.934 100.146 -21.43 100.73 -21.941 101.332 C-29.18 109.797 -29.18 109.797 -32.035 110.504 C-32.704 110.523 -33.373 110.543 -34.062 110.562 C-38 111 -38 111 -39.426 112.523 C-41 114 -41 114 -43.383 114.223 C-44.288 114.17 -45.193 114.117 -46.125 114.062 C-55.231 113.859 -60.563 115.467 -67.926 120.812 C-70.853 122.488 -72.833 121.829 -76 121 C-76.464 121.492 -76.928 121.985 -77.406 122.492 C-79 124 -79 124 -80.945 123.996 C-86.592 122.549 -91.759 120.552 -97 118 C-96.442 114.349 -95.15 112.98 -92.375 110.625 C-90.434 108.777 -90.434 108.777 -89 107 C-89.312 104.997 -89.648 102.997 -90 101 C-88.673 98.299 -87.119 95.866 -85.445 93.367 C-82.135 87.946 -83.071 82.587 -83.355 76.41 C-82.93 72.332 -81.538 71.107 -79 68 C-78.992 66 -78.992 64 -79 62 C-77.418 59.762 -77.418 59.762 -75.188 57.688 C-74.359 56.913 -73.53 56.138 -72.676 55.34 C-69.21 52.309 -65.67 49.388 -62.078 46.508 C-58.53 43.617 -55.074 40.632 -51.625 37.625 C-46.402 33.076 -41.151 28.565 -35.853 24.103 C-32.404 21.196 -28.98 18.263 -25.566 15.316 C-6.662 -0.987 -6.662 -0.987 0 0 Z M-13.188 9.938 C-14.517 11.141 -15.848 12.342 -17.18 13.543 C-17.829 14.135 -18.478 14.727 -19.147 15.337 C-21.631 17.566 -24.21 19.663 -26.812 21.75 C-30.302 24.575 -33.68 27.477 -37 30.5 C-41.192 34.317 -45.527 37.906 -49.934 41.473 C-55.447 46.017 -60.809 50.737 -66.193 55.431 C-69.116 57.969 -72.057 60.486 -75 63 C-74.625 65.438 -74.625 65.438 -74 68 C-73.34 68.33 -72.68 68.66 -72 69 C-71.34 67.02 -70.68 65.04 -70 63 C-64.695 67.423 -59.792 72.102 -54.949 77.023 C-53.432 78.554 -51.914 80.083 -50.396 81.613 C-48.027 84.008 -45.658 86.404 -43.293 88.803 C-40.995 91.131 -38.691 93.453 -36.387 95.773 C-35.675 96.498 -34.964 97.223 -34.231 97.97 C-33.573 98.631 -32.915 99.293 -32.237 99.974 C-31.659 100.56 -31.08 101.146 -30.484 101.75 C-29 103 -29 103 -27 103 C-25.667 101.533 -24.411 99.997 -23.188 98.438 C-19.449 93.764 -15.621 89.198 -11.688 84.688 C-10.572 83.405 -9.456 82.122 -8.34 80.84 C-7.785 80.203 -7.231 79.566 -6.66 78.91 C-0.451 71.766 5.728 64.604 11.688 57.25 C15.331 52.757 19.14 48.45 23.055 44.191 C23.697 43.468 24.339 42.745 25 42 C25.58 41.39 26.16 40.781 26.758 40.152 C28.619 36.928 28.391 34.675 28 31 C26.341 28.712 24.916 27.067 22.891 25.172 C22.367 24.656 21.844 24.141 21.305 23.609 C19.636 21.972 17.944 20.362 16.25 18.75 C15.126 17.653 14.004 16.554 12.883 15.453 C1.439 4.287 1.439 4.287 -2.801 3.441 C-7.447 4.253 -9.819 6.771 -13.188 9.938 Z M-77 72 C-79 74 -79 74 -79.09 75.961 C-79.04 76.758 -78.989 77.554 -78.938 78.375 C-78.769 87.342 -81.075 95.528 -86 103 C-84.68 103.99 -83.36 104.98 -82 106 C-76.152 97.608 -74.705 90.867 -75.125 80.734 C-74.996 77.918 -74.452 76.382 -73 74 C-74.32 73.34 -75.64 72.68 -77 72 Z M-86 109 C-87.98 111.31 -89.96 113.62 -92 116 C-91.175 116.33 -91.175 116.33 -87 118 C-85.35 116.02 -83.7 114.04 -82 112 C-83.32 111.01 -84.64 110.02 -86 109 Z " fill="#2B2827" transform="translate(97,2)"/>
<path d="M0 0 C2.905 1.314 4.967 2.721 7.208 4.981 C7.808 5.581 8.409 6.182 9.027 6.801 C9.663 7.446 10.298 8.092 10.953 8.758 C11.613 9.421 12.274 10.084 12.954 10.767 C15.057 12.882 17.154 15.003 19.25 17.125 C20.677 18.562 22.104 19.998 23.531 21.434 C27.026 24.951 30.515 28.474 34 32 C32.729 33.973 32.729 33.973 31 36 C28.216 36.33 25.719 36.457 22.938 36.438 C16.369 36.576 11.672 37.386 5.98 40.941 C3.064 42.501 0.242 42 -3 42 C-5.188 44 -5.188 44 -7 46 C-9.31 45.34 -11.62 44.68 -14 44 C-12.62 40.665 -11.15 38.814 -8 37 C-7.01 37.33 -6.02 37.66 -5 38 C-5.825 36.845 -5.825 36.845 -10 31 C-9.216 29.845 -8.433 28.69 -7.625 27.5 C-3.134 20.223 -2.784 14 -3.223 5.637 C-3 3 -3 3 -1.496 1.145 C-1.002 0.767 -0.509 0.389 0 0 Z " fill="#4F4B42" transform="translate(24,77)"/>
<path d="M0 0 C2 1.562 2 1.562 3 4 C3.514 8.997 3.687 10.984 0.832 15.203 C-0.153 16.24 -1.161 17.255 -2.188 18.25 C-2.723 18.794 -3.259 19.337 -3.812 19.897 C-4.945 21.036 -6.089 22.165 -7.242 23.285 C-8.996 24.996 -10.703 26.746 -12.41 28.504 C-13.521 29.609 -14.634 30.712 -15.75 31.812 C-16.256 32.334 -16.761 32.856 -17.282 33.394 C-20.155 36.122 -22.305 37.34 -26.203 37.457 C-30 37 -30 37 -33 34.875 C-35 32 -35 32 -35.75 29.188 C-33.84 21.071 -24.432 14.279 -18.688 8.562 C-17.877 7.748 -17.067 6.934 -16.232 6.096 C-15.458 5.323 -14.684 4.55 -13.887 3.754 C-13.188 3.056 -12.489 2.358 -11.768 1.639 C-8.118 -1.744 -4.596 -1.184 0 0 Z " fill="#D6D4BF" transform="translate(92,36)"/>
<path d="M0 0 C3.075 1.703 5.406 3.812 7 7 C7.749 11.192 7.938 13.58 5.555 17.188 C3.646 19.335 1.676 21.388 -0.376 23.398 C-2.285 25.281 -4.151 27.202 -6.02 29.125 C-7.449 30.585 -8.88 32.043 -10.312 33.5 C-11.006 34.207 -11.7 34.914 -12.414 35.643 C-12.746 35.975 -12.746 35.975 -14.426 37.656 C-15.018 38.252 -15.61 38.849 -16.22 39.463 C-19.198 42.034 -21.466 42.931 -25.375 43.438 C-30.185 42.857 -31.614 41.386 -35 38 C-36.796 34.409 -36.685 30.904 -36 27 C-34.747 25.106 -34.747 25.106 -33.051 23.285 C-32.415 22.598 -31.78 21.911 -31.125 21.203 C-30.424 20.476 -29.723 19.749 -29 19 C-28.264 18.237 -27.528 17.474 -26.769 16.688 C-24.427 14.294 -22.062 11.925 -19.688 9.562 C-18.877 8.748 -18.067 7.934 -17.232 7.096 C-16.458 6.323 -15.684 5.55 -14.887 4.754 C-14.188 4.056 -13.489 3.358 -12.768 2.639 C-9.046 -0.811 -4.853 -0.749 0 0 Z M-10.68 4.93 C-11.372 5.568 -12.064 6.206 -12.777 6.864 C-16.706 10.64 -20.594 14.45 -24.438 18.312 C-25.252 19.123 -26.066 19.933 -26.904 20.768 C-27.291 21.155 -27.291 21.155 -29.246 23.113 C-29.944 23.812 -30.642 24.511 -31.361 25.232 C-33.487 27.525 -33.958 28.685 -34.375 31.812 C-34 35 -34 35 -32 37.875 C-28.8 40.142 -26.945 40.51 -23.064 40.393 C-19.451 39.705 -17.214 37.356 -14.75 34.812 C-14.206 34.277 -13.663 33.741 -13.103 33.188 C-11.964 32.055 -10.835 30.911 -9.715 29.758 C-8.004 28.004 -6.254 26.297 -4.496 24.59 C-3.391 23.479 -2.288 22.366 -1.188 21.25 C-0.666 20.744 -0.144 20.239 0.394 19.718 C3.153 16.812 4.325 14.7 4.387 10.762 C4 7 4 7 3 4.562 C0.535 2.637 -1.725 1.886 -4.844 1.649 C-7.589 2.096 -8.649 3.046 -10.68 4.93 Z " fill="#423C35" transform="translate(91,33)"/>
<path d="M0 0 C3.227 1.419 5.373 3.129 7.851 5.624 C8.591 6.364 9.332 7.105 10.094 7.868 C10.883 8.667 11.672 9.466 12.484 10.289 C13.3 11.107 14.116 11.926 14.956 12.769 C17.559 15.383 20.154 18.004 22.75 20.625 C24.514 22.399 26.278 24.172 28.043 25.945 C32.367 30.292 36.686 34.644 41 39 C40.835 39.33 40.835 39.33 40 41 C37.077 41.261 35.497 41.336 33.025 39.667 C32.394 39.042 31.762 38.418 31.112 37.775 C30.388 37.07 29.665 36.365 28.919 35.639 C28.154 34.868 27.39 34.096 26.602 33.301 C26.204 32.907 26.204 32.907 24.194 30.915 C22.519 29.248 20.85 27.574 19.187 25.894 C16.633 23.32 14.051 20.778 11.465 18.236 C9.842 16.614 8.221 14.989 6.602 13.363 C5.825 12.602 5.048 11.84 4.247 11.055 C3.543 10.335 2.838 9.615 2.112 8.872 C1.485 8.244 0.858 7.615 0.213 6.968 C-1 5 -1 5 -0.694 2.258 C-0.465 1.513 -0.236 0.768 0 0 Z " fill="#D0CDB9" transform="translate(26,68)"/>
<path d="M0 0 C0.99 0 1.98 0 3 0 C4.704 3.408 4.896 6.369 4 10 C1.909 13.165 -0.673 15.749 -3.376 18.398 C-5.285 20.281 -7.151 22.202 -9.02 24.125 C-10.449 25.585 -11.88 27.043 -13.312 28.5 C-14.006 29.207 -14.7 29.914 -15.414 30.643 C-15.746 30.975 -15.746 30.975 -17.426 32.656 C-18.018 33.252 -18.61 33.849 -19.22 34.463 C-22.31 37.131 -24.474 37.954 -28.562 38.312 C-32 38 -32 38 -33.938 36.5 C-34.288 36.005 -34.639 35.51 -35 35 C-32 34 -32 34 -28.189 34.244 C-24.333 34.282 -22.317 33.29 -19.434 30.597 C-18.951 30.104 -18.467 29.61 -17.969 29.102 C-17.447 28.593 -16.926 28.084 -16.389 27.559 C-15.297 26.481 -14.215 25.393 -13.143 24.295 C-11.507 22.632 -9.828 21.021 -8.141 19.41 C-0.426 11.802 -0.426 11.802 0.715 6.979 C0.718 4.532 0.552 2.38 0 0 Z " fill="#3E3934" transform="translate(94,38)"/>
<path d="M0 0 C1.98 0.99 3.96 1.98 6 3 C5.035 5.413 4.276 6.79 2.188 8.375 C-0.785 9.224 -2.298 8.351 -5 7 C-3.707 4.116 -2.341 2.128 0 0 Z " fill="#F1BE6A" transform="translate(15,114)"/>
<path d="M0 0 C0.33 0 0.66 0 1 0 C1.133 0.615 1.266 1.23 1.402 1.863 C1.579 2.672 1.756 3.48 1.938 4.312 C2.112 5.113 2.286 5.914 2.465 6.738 C3 9 3 9 4 12 C0.125 10.25 0.125 10.25 -1 8 C-1.125 4.438 -1.125 4.438 -1 1 C-0.67 0.67 -0.34 0.34 0 0 Z " fill="#2C2928" transform="translate(56,61)"/>
<path d="M0 0 C2.688 -0.312 2.688 -0.312 6 0 C8.875 2.5 8.875 2.5 11 5 C9 4.5 9 4.5 -1 2 C-0.67 1.34 -0.34 0.68 0 0 Z " fill="#2F2C2B" transform="translate(85,33)"/>
<path d="M0 0 C2.691 0.176 5.329 0.618 8 1 C8.33 1.99 8.66 2.98 9 4 C2.477 4.369 2.477 4.369 0.062 2.5 C-0.113 2.252 -0.113 2.252 -1 1 C-0.67 0.67 -0.34 0.34 0 0 Z " fill="#4E473D" transform="translate(60,72)"/>
<path d="M0 0 C0.99 0 1.98 0 3 0 C4.607 3.215 4.057 6.436 4 10 C1 8 1 8 0.488 6.055 C0.326 4.036 0.163 2.018 0 0 Z " fill="#524A3D" transform="translate(94,38)"/>
</svg>
